<?xml version="1.0" standalone="no"?><!-- Generator: Gravit.io --><svg xmlns="http://www.w3.org/2000/svg" xmlns:xlink="http://www.w3.org/1999/xlink" style="isolation:isolate" viewBox="252 155 12 11" width="12" height="11"><clipPath id="_clipPath_q9LpbjXfO4lVSTsEEdpw0jEPCotbebXt"><path d="M 252.66 155 L 263.34 155 C 263.704 155 264 155.296 264 155.66 L 264 165.34 C 264 165.704 263.704 166 263.34 166 L 252.66 166 C 252.296 166 252 165.704 252 165.34 L 252 155.66 C 252 155.296 252.296 155 252.66 155 Z" style="stroke:black;fill:white;stroke-miterlimit:10;"/></clipPath><g clip-path="url(#_clipPath_q9LpbjXfO4lVSTsEEdpw0jEPCotbebXt)"><g id="Group"><path d=" M 257.233 156.81 C 257.233 156.387 257.577 156.043 258 156.043 C 258.423 156.043 258.767 156.387 258.767 156.81 C 258.767 157.233 258.423 157.577 258 157.577 C 257.577 157.577 257.233 157.233 257.233 156.81 Z " fill="rgb(247,247,247)"/><path d=" M 257.233 160.5 C 257.233 160.077 257.577 159.733 258 159.733 C 258.423 159.733 258.767 160.077 258.767 160.5 C 258.767 160.923 258.423 161.267 258 161.267 C 257.577 161.267 257.233 160.923 257.233 160.5 Z " fill="rgb(247,247,247)"/><path d=" M 257.233 164.19 C 257.233 163.767 257.577 163.423 258 163.423 C 258.423 163.423 258.767 163.767 258.767 164.19 C 258.767 164.613 258.423 164.957 258 164.957 C 257.577 164.957 257.233 164.613 257.233 164.19 Z " fill="rgb(247,247,247)"/><path d=" M 253.233 156.81 C 253.233 156.387 253.577 156.043 254 156.043 C 254.423 156.043 254.767 156.387 254.767 156.81 C 254.767 157.233 254.423 157.577 254 157.577 C 253.577 157.577 253.233 157.233 253.233 156.81 Z " fill="rgb(247,247,247)"/><path d=" M 253.233 160.5 C 253.233 160.077 253.577 159.733 254 159.733 C 254.423 159.733 254.767 160.077 254.767 160.5 C 254.767 160.923 254.423 161.267 254 161.267 C 253.577 161.267 253.233 160.923 253.233 160.5 Z " fill="rgb(247,247,247)"/><path d=" M 253.233 164.19 C 253.233 163.767 253.577 163.423 254 163.423 C 254.423 163.423 254.767 163.767 254.767 164.19 C 254.767 164.613 254.423 164.957 254 164.957 C 253.577 164.957 253.233 164.613 253.233 164.19 Z " fill="rgb(247,247,247)"/><path d=" M 261.233 156.81 C 261.233 156.387 261.577 156.043 262 156.043 C 262.423 156.043 262.767 156.387 262.767 156.81 C 262.767 157.233 262.423 157.577 262 157.577 C 261.577 157.577 261.233 157.233 261.233 156.81 Z " fill="rgb(247,247,247)"/><path d=" M 261.233 160.5 C 261.233 160.077 261.577 159.733 262 159.733 C 262.423 159.733 262.767 160.077 262.767 160.5 C 262.767 160.923 262.423 161.267 262 161.267 C 261.577 161.267 261.233 160.923 261.233 160.5 Z " fill="rgb(247,247,247)"/><path d=" M 261.233 164.19 C 261.233 163.767 261.577 163.423 262 163.423 C 262.423 163.423 262.767 163.767 262.767 164.19 C 262.767 164.613 262.423 164.957 262 164.957 C 261.577 164.957 261.233 164.613 261.233 164.19 Z " fill="rgb(247,247,247)"/></g></g></svg>