<?xml version="1.0" standalone="no"?><!-- Generator: Gravit.io --><svg xmlns="http://www.w3.org/2000/svg" xmlns:xlink="http://www.w3.org/1999/xlink" style="isolation:isolate" viewBox="249 118 18 12.5" width="18" height="12.5"><g id="collection"><path d="M 251.1 118.5 L 264.9 118.5 C 266.059 118.5 267 119.441 267 120.6 L 267 128.4 C 267 129.559 266.059 130.5 264.9 130.5 L 251.1 130.5 C 249.941 130.5 249 129.559 249 128.4 L 249 120.6 C 249 119.441 249.941 118.5 251.1 118.5 Z" style="stroke:none;fill:#EBEBEB;stroke-miterlimit:10;"/><g id="Group"><path d="M 250.423 118 L 265.577 118 C 266.362 118 267 118.638 267 119.423 L 267 119.577 C 267 120.362 266.362 121 265.577 121 L 250.423 121 C 249.638 121 249 120.362 249 119.577 L 249 119.423 C 249 118.638 249.638 118 250.423 118 Z" style="stroke:none;fill:#939393;stroke-miterlimit:10;"/><rect x="251" y="118" width="14" height="12" transform="matrix(1,0,0,1,0,0)" fill="rgb(235,235,235)"/></g></g></svg>