<?xml version="1.0" standalone="no"?><!-- Generator: Gravit.io --><svg xmlns="http://www.w3.org/2000/svg" xmlns:xlink="http://www.w3.org/1999/xlink" style="isolation:isolate" viewBox="248 100 20 13" width="20" height="13"><g id="folder"><path d="M 266.08 101 L 249.92 101 C 248.86 101 248 101.86 248 102.92 L 248 111.08 C 248 112.14 248.86 113 249.92 113 L 266.08 113 C 267.14 113 268 112.14 268 111.08 L 268 102.92 C 268 101.86 267.14 101 266.08 101 Z" style="stroke:none;fill:#EBEBEB;stroke-miterlimit:10;"/><g id="Group"><path d="M 257.295 100 L 249.705 100 C 249.316 100 249 100.316 249 100.705 L 249 102.295 C 249 102.684 249.316 103 249.705 103 L 257.295 103 C 257.684 103 258 102.684 258 102.295 L 258 100.705 C 258 100.316 257.684 100 257.295 100 Z" style="stroke:none;fill:#939393;stroke-miterlimit:10;"/><path d="M 254.4 100 L 249.6 100 C 248.717 100 248 100.717 248 101.6 L 248 111.4 C 248 112.283 248.717 113 249.6 113 L 254.4 113 C 255.283 113 256 112.283 256 111.4 L 256 101.6 C 256 100.717 255.283 100 254.4 100 Z" style="stroke:none;fill:#EBEBEB;stroke-miterlimit:10;"/></g></g></svg>