<?xml version="1.0" standalone="no"?><!-- Generator: Gravit.io --><svg xmlns="http://www.w3.org/2000/svg" xmlns:xlink="http://www.w3.org/1999/xlink" style="isolation:isolate" viewBox="262 130 24 24" width="24" height="24"><g id="saveall"><defs><filter id="UONxEn54eMdiePXRhopddThxVSK2sF0c" x="-200%" y="-200%" width="400%" height="400%"><feOffset xmlns="http://www.w3.org/2000/svg" in="SourceAlpha" result="offOut" dx="0" dy="0"/><feGaussianBlur xmlns="http://www.w3.org/2000/svg" in="offOut" result="blurOut" stdDeviation="2.5"/><feComponentTransfer xmlns="http://www.w3.org/2000/svg" in="blurOut" result="opacOut"><feFuncA xmlns="http://www.w3.org/2000/svg" type="table" tableValues="0 0.5"/></feComponentTransfer><feBlend xmlns="http://www.w3.org/2000/svg" in="SourceGraphic" in2="opacOut" mode="normal"/></filter></defs><g filter="url(#UONxEn54eMdiePXRhopddThxVSK2sF0c)"><path d=" M 268 137 L 276.008 137 L 279 139.992 L 279 148 C 279 148.552 278.552 149 278 149 L 268 149 C 267.448 149 267 148.552 267 148 L 267 138 C 267 137.448 267.448 137 268 137 Z " fill="rgb(235,235,235)"/><clipPath id="_clipPath_rGUWWh07IsoKd7iBt6rMmKw5r0UupA3j"><g filter="url(#UONxEn54eMdiePXRhopddThxVSK2sF0c)"><path d=" M 268 137 L 276.008 137 L 279 139.992 L 279 148 C 279 148.552 278.552 149 278 149 L 268 149 C 267.448 149 267 148.552 267 148 L 267 138 C 267 137.448 267.448 137 268 137 Z " fill="rgb(235,235,235)"/></g></clipPath><g clip-path="url(#_clipPath_rGUWWh07IsoKd7iBt6rMmKw5r0UupA3j)"><rect x="268.714" y="142.5" width="8.571" height="5" transform="matrix(1,0,0,1,0,0)" fill="rgb(89,89,89)"/><rect x="269.571" y="136.5" width="6.857" height="4" transform="matrix(1,0,0,1,0,0)" fill="rgb(89,89,89)"/></g></g><defs><filter id="KnJYFyJKjE1KYTmk8RN40Sb47eLnjQ7C" x="-200%" y="-200%" width="400%" height="400%"><feOffset xmlns="http://www.w3.org/2000/svg" in="SourceAlpha" result="offOut" dx="0" dy="0"/><feGaussianBlur xmlns="http://www.w3.org/2000/svg" in="offOut" result="blurOut" stdDeviation="2.5"/><feComponentTransfer xmlns="http://www.w3.org/2000/svg" in="blurOut" result="opacOut"><feFuncA xmlns="http://www.w3.org/2000/svg" type="table" tableValues="0 0.5"/></feComponentTransfer><feBlend xmlns="http://www.w3.org/2000/svg" in="SourceGraphic" in2="opacOut" mode="normal"/></filter></defs><g filter="url(#KnJYFyJKjE1KYTmk8RN40Sb47eLnjQ7C)"><path d=" M 280 147 C 280.552 147 281 146.552 281 146 L 281 137.992 L 278.008 135 L 270 135 C 269.448 135 269 135.448 269 136 L 277.008 136 L 280 138.992 L 280 147 Z " fill="rgb(235,235,235)"/></g></g></svg>