<?xml version="1.0" standalone="no"?><!-- Generator: Gravit.io --><svg xmlns="http://www.w3.org/2000/svg" xmlns:xlink="http://www.w3.org/1999/xlink" style="isolation:isolate" viewBox="247 132 22 22" width="22" height="22"><defs><filter id="OYLgULR1PDFaLZQ2xRykInm9BevrrAhe" x="-200%" y="-200%" width="400%" height="400%"><feOffset xmlns="http://www.w3.org/2000/svg" in="SourceAlpha" result="offOut" dx="0" dy="0"/><feGaussianBlur xmlns="http://www.w3.org/2000/svg" in="offOut" result="blurOut" stdDeviation="2.5"/><feComponentTransfer xmlns="http://www.w3.org/2000/svg" in="blurOut" result="opacOut"><feFuncA xmlns="http://www.w3.org/2000/svg" type="table" tableValues="0 0.5"/></feComponentTransfer><feBlend xmlns="http://www.w3.org/2000/svg" in="SourceGraphic" in2="opacOut" mode="normal"/></filter></defs><g filter="url(#OYLgULR1PDFaLZQ2xRykInm9BevrrAhe)"><path d=" M 253 137 L 261.008 137 L 264 139.992 L 264 148 C 264 148.552 263.552 149 263 149 L 253 149 C 252.448 149 252 148.552 252 148 L 252 138 C 252 137.448 252.448 137 253 137 Z " fill="rgb(235,235,235)"/><clipPath id="_clipPath_DNq3NgWnQDo4vwtduZF1yv20HIrs1lGx"><g filter="url(#OYLgULR1PDFaLZQ2xRykInm9BevrrAhe)"><path d=" M 253 137 L 261.008 137 L 264 139.992 L 264 148 C 264 148.552 263.552 149 263 149 L 253 149 C 252.448 149 252 148.552 252 148 L 252 138 C 252 137.448 252.448 137 253 137 Z " fill="rgb(235,235,235)"/></g></clipPath><g clip-path="url(#_clipPath_DNq3NgWnQDo4vwtduZF1yv20HIrs1lGx)"><rect x="253.714" y="142.5" width="8.571" height="5" transform="matrix(1,0,0,1,0,0)" fill="rgb(89,89,89)"/><rect x="254.571" y="136.5" width="6.857" height="4" transform="matrix(1,0,0,1,0,0)" fill="rgb(89,89,89)"/></g></g></svg>