<?xml version="1.0" standalone="no"?><!-- Generator: Gravit.io --><svg xmlns="http://www.w3.org/2000/svg" xmlns:xlink="http://www.w3.org/1999/xlink" style="isolation:isolate" viewBox="242.54 62.722 55.031 33.431" width="55.031" height="33.431"><g id="Group"><path d="M 256.351 70 L 283.902 70 C 284.685 70 285.321 70.636 285.321 71.419 L 285.321 87.581 C 285.321 88.364 284.685 89 283.902 89 L 256.351 89 C 255.568 89 254.932 88.364 254.932 87.581 L 254.932 71.419 C 254.932 70.636 255.568 70 256.351 70 Z" style="stroke:none;fill:#243273;stroke-miterlimit:10;"/><defs><linearGradient id="_lgradient_0" x1="0" y1="0.5" x2="0.9612002427087425" y2="0.027209034071447813"><stop offset="0.8695652173913043%" style="stop-color:#884747"/><stop offset="97.82608695652173%" style="stop-color:#4F4F4F"/></linearGradient></defs><path d="M 260.977 65.465 L 282.387 72.168 C 285.855 73.253 288.236 77.053 287.702 80.647 L 286.481 88.865 C 285.947 92.459 282.698 94.496 279.231 93.41 L 257.821 86.707 C 254.353 85.621 251.971 81.822 252.505 78.228 L 253.727 70.009 C 254.261 66.415 257.51 64.379 260.977 65.465 Z" style="stroke:none;fill:url(#_lgradient_0);stroke-miterlimit:10;mix-blend-mode:soft-light;"/><defs><linearGradient id="_lgradient_1" x1="0" y1="0.5" x2="0.9612002427087425" y2="0.027209034071447813"><stop offset="2.608695652173913%" style="stop-color:#2AA7C6"/><stop offset="98.26086956521739%" style="stop-color:#DD2323"/></linearGradient></defs><path d="M 257.916 73.584 L 279.217 65.299 C 282.603 63.982 285.888 65.814 286.547 69.387 L 288.032 77.429 C 288.692 81.002 286.478 84.972 283.091 86.289 L 261.79 94.574 C 258.404 95.891 255.119 94.06 254.459 90.487 L 252.975 82.444 C 252.315 78.871 254.529 74.901 257.916 73.584 Z" style="stroke:none;fill:url(#_lgradient_1);stroke-miterlimit:10;mix-blend-mode:soft-light;"/><defs><filter id="4DbqAKh4kA5KZ6Dtth6o7REz5UDzxJZ6" x="-200%" y="-200%" width="400%" height="400%"><feOffset xmlns="http://www.w3.org/2000/svg" in="SourceAlpha" result="offOut" dx="0" dy="0"/><feGaussianBlur xmlns="http://www.w3.org/2000/svg" in="offOut" result="blurOut" stdDeviation="5"/><feComponentTransfer xmlns="http://www.w3.org/2000/svg" in="blurOut" result="opacOut"><feFuncA xmlns="http://www.w3.org/2000/svg" type="table" tableValues="0 0.5"/></feComponentTransfer><feBlend xmlns="http://www.w3.org/2000/svg" in="SourceGraphic" in2="opacOut" mode="normal"/></filter></defs><g filter="url(#4DbqAKh4kA5KZ6Dtth6o7REz5UDzxJZ6)"><linearGradient id="_lgradient_2" x1="0%" y1="50%" x2="100%" y2="50%"><stop offset="0%" stop-opacity="1" style="stop-color:rgb(255,255,255)"/><stop offset="98.69565217391305%" stop-opacity="1" style="stop-color:rgb(67,113,219)"/></linearGradient><path d=" M 257.191 79.086 L 257.191 79.086 L 257.191 79.086 Q 257.094 78.881 256.851 78.745 L 256.851 78.745 L 256.851 78.745 Q 256.608 78.61 256.345 78.61 L 256.345 78.61 L 256.345 78.61 Q 256.067 78.61 255.869 78.76 L 255.869 78.76 L 255.869 78.76 Q 255.671 78.91 255.671 79.196 L 255.671 79.196 L 255.671 79.196 Q 255.671 79.423 255.817 79.565 L 255.817 79.565 L 255.817 79.565 Q 255.963 79.708 256.181 79.767 L 256.181 79.767 L 256.181 79.767 Q 256.4 79.825 256.653 79.906 L 256.653 79.906 L 256.653 79.906 Q 256.907 79.986 257.125 80.078 L 257.125 80.078 L 257.125 80.078 Q 257.344 80.169 257.489 80.393 L 257.489 80.393 L 257.489 80.393 Q 257.635 80.616 257.635 80.945 L 257.635 80.945 L 257.635 80.945 Q 257.635 81.538 257.243 81.817 L 257.243 81.817 L 257.243 81.817 Q 256.851 82.095 256.289 82.095 L 256.289 82.095 L 256.289 82.095 Q 255.831 82.095 255.481 81.934 L 255.481 81.934 L 255.481 81.934 Q 255.13 81.773 255.13 81.538 L 255.13 81.538 L 255.13 81.538 Q 255.13 81.355 255.442 81.194 L 255.442 81.194 L 255.442 81.194 Q 255.554 81.414 255.835 81.553 L 255.835 81.553 L 255.835 81.553 Q 256.116 81.692 256.414 81.692 L 256.414 81.692 L 256.414 81.692 Q 256.719 81.692 256.945 81.535 L 256.945 81.535 L 256.945 81.535 Q 257.17 81.377 257.17 81.084 L 257.17 81.084 L 257.17 81.084 Q 257.17 80.828 256.969 80.678 L 256.969 80.678 L 256.969 80.678 Q 256.768 80.528 256.48 80.455 L 256.48 80.455 L 256.48 80.455 Q 256.192 80.382 255.904 80.283 L 255.904 80.283 L 255.904 80.283 Q 255.616 80.184 255.415 79.946 L 255.415 79.946 L 255.415 79.946 Q 255.214 79.708 255.214 79.32 L 255.214 79.32 L 255.214 79.32 Q 255.214 78.778 255.567 78.493 L 255.567 78.493 L 255.567 78.493 Q 255.921 78.207 256.469 78.207 L 256.469 78.207 L 256.469 78.207 Q 256.872 78.207 257.208 78.35 L 257.208 78.35 L 257.208 78.35 Q 257.545 78.493 257.545 78.749 L 257.545 78.749 L 257.545 78.749 Q 257.545 79.013 257.191 79.086 Z  M 259.64 80.286 L 259.64 80.286 L 259.64 80.286 Q 260.001 80.286 260.202 80.07 L 260.202 80.07 L 260.202 80.07 Q 260.404 79.855 260.404 79.488 L 260.404 79.488 L 260.404 79.488 Q 260.404 78.983 260.178 78.793 L 260.178 78.793 L 260.178 78.793 Q 259.953 78.603 259.474 78.603 L 259.474 78.603 L 259.474 78.603 Q 259.446 78.603 259.092 78.625 L 259.092 78.625 L 259.092 78.625 Q 259.113 79.108 259.113 79.73 L 259.113 79.73 L 259.113 80.169 L 259.113 80.169 Q 259.335 80.286 259.64 80.286 Z  M 258.607 80.726 L 258.607 80.726 L 258.607 79.584 L 258.607 79.584 Q 258.607 78.793 258.537 78.273 L 258.537 78.273 L 258.537 78.273 Q 258.912 78.207 259.405 78.207 L 259.405 78.207 L 259.405 78.207 Q 260.959 78.207 260.959 79.452 L 260.959 79.452 L 260.959 79.452 Q 260.959 80.06 260.608 80.374 L 260.608 80.374 L 260.608 80.374 Q 260.258 80.689 259.786 80.689 L 259.786 80.689 L 259.786 80.689 Q 259.377 80.689 259.113 80.506 L 259.113 80.506 L 259.113 80.909 L 259.113 80.909 Q 259.113 81.663 259.224 82.022 L 259.224 82.022 L 259.224 82.022 Q 259.099 82.058 258.919 82.058 L 258.919 82.058 L 258.919 82.058 Q 258.731 82.058 258.666 81.985 L 258.666 81.985 L 258.666 81.985 Q 258.6 81.912 258.6 81.736 L 258.6 81.736 L 258.6 81.736 Q 258.6 81.648 258.603 81.289 L 258.603 81.289 L 258.603 81.289 Q 258.607 80.931 258.607 80.726 Z  M 262.27 78.676 L 262.27 78.676 L 262.27 78.676 Q 262.291 78.852 262.291 79.811 L 262.291 79.811 L 262.735 79.811 L 262.735 79.811 Q 263.2 79.811 263.401 79.789 L 263.401 79.789 L 263.401 79.789 Q 263.422 79.847 263.422 79.95 L 263.422 79.95 L 263.422 79.95 Q 263.422 80.096 263.363 80.151 L 263.363 80.151 L 263.363 80.151 Q 263.304 80.206 263.179 80.213 L 263.179 80.213 L 263.179 80.213 Q 263.034 80.221 262.784 80.221 L 262.784 80.221 L 262.291 80.221 L 262.291 80.221 Q 262.291 81.399 262.333 81.641 L 262.333 81.641 L 262.333 81.641 Q 262.582 81.655 262.735 81.655 L 262.735 81.655 L 262.735 81.655 Q 263.651 81.655 263.936 81.524 L 263.936 81.524 L 263.936 81.524 Q 263.984 81.655 263.984 81.802 L 263.984 81.802 L 263.984 81.802 Q 263.984 81.919 263.929 81.97 L 263.929 81.97 L 263.929 81.97 Q 263.825 82.051 262.985 82.051 L 262.985 82.051 L 262.985 82.051 Q 262.818 82.051 262.451 82.047 L 262.451 82.047 L 262.451 82.047 Q 262.083 82.043 262.069 82.043 L 262.069 82.043 L 262.069 82.043 Q 261.896 82.036 261.837 81.963 L 261.837 81.963 L 261.837 81.963 Q 261.778 81.89 261.778 81.721 L 261.778 81.721 L 261.778 81.721 Q 261.778 81.619 261.785 81.271 L 261.785 81.271 L 261.785 81.271 Q 261.791 80.923 261.791 80.726 L 261.791 80.726 L 261.791 79.606 L 261.791 79.606 Q 261.791 78.771 261.708 78.295 L 261.708 78.295 L 261.708 78.295 Q 262.388 78.244 262.978 78.244 L 262.978 78.244 L 262.978 78.244 Q 263.818 78.244 263.922 78.332 L 263.922 78.332 L 263.922 78.332 Q 263.977 78.383 263.977 78.5 L 263.977 78.5 L 263.977 78.5 Q 263.977 78.647 263.929 78.778 L 263.929 78.778 L 263.929 78.778 Q 263.596 78.661 262.888 78.661 L 262.888 78.661 L 262.888 78.661 Q 262.617 78.661 262.27 78.676 Z  M 265.372 78.676 L 265.372 78.676 L 265.372 78.676 Q 265.393 78.852 265.393 79.811 L 265.393 79.811 L 265.837 79.811 L 265.837 79.811 Q 266.302 79.811 266.503 79.789 L 266.503 79.789 L 266.503 79.789 Q 266.524 79.847 266.524 79.95 L 266.524 79.95 L 266.524 79.95 Q 266.524 80.096 266.465 80.151 L 266.465 80.151 L 266.465 80.151 Q 266.406 80.206 266.281 80.213 L 266.281 80.213 L 266.281 80.213 Q 266.135 80.221 265.885 80.221 L 265.885 80.221 L 265.393 80.221 L 265.393 80.221 Q 265.393 81.399 265.434 81.641 L 265.434 81.641 L 265.434 81.641 Q 265.684 81.655 265.837 81.655 L 265.837 81.655 L 265.837 81.655 Q 266.753 81.655 267.037 81.524 L 267.037 81.524 L 267.037 81.524 Q 267.086 81.655 267.086 81.802 L 267.086 81.802 L 267.086 81.802 Q 267.086 81.919 267.03 81.97 L 267.03 81.97 L 267.03 81.97 Q 266.926 82.051 266.087 82.051 L 266.087 82.051 L 266.087 82.051 Q 265.92 82.051 265.552 82.047 L 265.552 82.047 L 265.552 82.047 Q 265.185 82.043 265.171 82.043 L 265.171 82.043 L 265.171 82.043 Q 264.997 82.036 264.938 81.963 L 264.938 81.963 L 264.938 81.963 Q 264.879 81.89 264.879 81.721 L 264.879 81.721 L 264.879 81.721 Q 264.879 81.619 264.886 81.271 L 264.886 81.271 L 264.886 81.271 Q 264.893 80.923 264.893 80.726 L 264.893 80.726 L 264.893 79.606 L 264.893 79.606 Q 264.893 78.771 264.81 78.295 L 264.81 78.295 L 264.81 78.295 Q 265.49 78.244 266.08 78.244 L 266.08 78.244 L 266.08 78.244 Q 266.919 78.244 267.023 78.332 L 267.023 78.332 L 267.023 78.332 Q 267.079 78.383 267.079 78.5 L 267.079 78.5 L 267.079 78.5 Q 267.079 78.647 267.03 78.778 L 267.03 78.778 L 267.03 78.778 Q 266.697 78.661 265.989 78.661 L 265.989 78.661 L 265.989 78.661 Q 265.719 78.661 265.372 78.676 Z  M 267.828 81.743 L 267.828 81.743 L 267.828 81.743 Q 267.905 81.253 267.918 79.825 L 267.918 79.825 L 267.918 79.825 Q 267.918 78.844 267.849 78.273 L 267.849 78.273 L 267.849 78.273 Q 268.182 78.207 268.744 78.207 L 268.744 78.207 L 268.744 78.207 Q 269.195 78.207 269.552 78.303 L 269.552 78.303 L 269.552 78.303 Q 269.91 78.398 270.212 78.614 L 270.212 78.614 L 270.212 78.614 Q 270.514 78.83 270.677 79.218 L 270.677 79.218 L 270.677 79.218 Q 270.84 79.606 270.84 80.147 L 270.84 80.147 L 270.84 80.147 Q 270.84 80.997 270.375 81.546 L 270.375 81.546 L 270.375 81.546 Q 269.91 82.095 269.056 82.095 L 269.056 82.095 L 269.056 82.095 Q 268.258 82.095 267.828 81.743 Z  M 268.397 78.625 L 268.397 78.625 L 268.397 78.625 Q 268.418 78.917 268.418 79.525 L 268.418 79.525 L 268.418 79.525 Q 268.418 80.77 268.342 81.494 L 268.342 81.494 L 268.342 81.494 Q 268.626 81.692 269.063 81.692 L 269.063 81.692 L 269.063 81.692 Q 269.403 81.692 269.653 81.56 L 269.653 81.56 L 269.653 81.56 Q 269.903 81.429 270.035 81.205 L 270.035 81.205 L 270.035 81.205 Q 270.167 80.982 270.226 80.744 L 270.226 80.744 L 270.226 80.744 Q 270.285 80.506 270.285 80.25 L 270.285 80.25 L 270.285 80.25 Q 270.285 79.43 269.886 79.016 L 269.886 79.016 L 269.886 79.016 Q 269.487 78.603 268.744 78.603 L 268.744 78.603 L 268.744 78.603 Q 268.696 78.603 268.64 78.606 L 268.64 78.606 L 268.64 78.606 Q 268.585 78.61 268.512 78.617 L 268.512 78.617 L 268.512 78.617 Q 268.439 78.625 268.397 78.625 Z  M 272.845 80.286 L 272.845 80.286 L 272.845 80.286 Q 273.206 80.286 273.407 80.07 L 273.407 80.07 L 273.407 80.07 Q 273.608 79.855 273.608 79.488 L 273.608 79.488 L 273.608 79.488 Q 273.608 78.983 273.383 78.793 L 273.383 78.793 L 273.383 78.793 Q 273.157 78.603 272.678 78.603 L 272.678 78.603 L 272.678 78.603 Q 272.651 78.603 272.297 78.625 L 272.297 78.625 L 272.297 78.625 Q 272.318 79.108 272.318 79.73 L 272.318 79.73 L 272.318 80.169 L 272.318 80.169 Q 272.54 80.286 272.845 80.286 Z  M 271.811 80.726 L 271.811 80.726 L 271.811 79.584 L 271.811 79.584 Q 271.811 78.793 271.742 78.273 L 271.742 78.273 L 271.742 78.273 Q 272.116 78.207 272.609 78.207 L 272.609 78.207 L 272.609 78.207 Q 274.163 78.207 274.163 79.452 L 274.163 79.452 L 274.163 79.452 Q 274.163 80.06 273.813 80.374 L 273.813 80.374 L 273.813 80.374 Q 273.462 80.689 272.991 80.689 L 272.991 80.689 L 272.991 80.689 Q 272.581 80.689 272.318 80.506 L 272.318 80.506 L 272.318 80.909 L 272.318 80.909 Q 272.318 81.663 272.429 82.022 L 272.429 82.022 L 272.429 82.022 Q 272.304 82.058 272.123 82.058 L 272.123 82.058 L 272.123 82.058 Q 271.936 82.058 271.87 81.985 L 271.87 81.985 L 271.87 81.985 Q 271.804 81.912 271.804 81.736 L 271.804 81.736 L 271.804 81.736 Q 271.804 81.648 271.808 81.289 L 271.808 81.289 L 271.808 81.289 Q 271.811 80.931 271.811 80.726 Z  M 276.439 82.095 L 276.439 82.095 L 276.439 82.095 Q 275.634 82.095 275.156 81.568 L 275.156 81.568 L 275.156 81.568 Q 274.677 81.041 274.677 80.155 L 274.677 80.155 L 274.677 80.155 Q 274.677 79.262 275.156 78.734 L 275.156 78.734 L 275.156 78.734 Q 275.634 78.207 276.439 78.207 L 276.439 78.207 L 276.439 78.207 Q 277.251 78.207 277.733 78.734 L 277.733 78.734 L 277.733 78.734 Q 278.216 79.262 278.216 80.155 L 278.216 80.155 L 278.216 80.155 Q 278.216 81.041 277.733 81.568 L 277.733 81.568 L 277.733 81.568 Q 277.251 82.095 276.439 82.095 Z  M 277.66 80.257 L 277.66 80.257 L 277.66 80.257 Q 277.66 79.84 277.549 79.481 L 277.549 79.481 L 277.549 79.481 Q 277.438 79.122 277.15 78.866 L 277.15 78.866 L 277.15 78.866 Q 276.862 78.61 276.446 78.61 L 276.446 78.61 L 276.446 78.61 Q 275.884 78.61 275.555 78.998 L 275.555 78.998 L 275.555 78.998 Q 275.225 79.386 275.225 79.986 L 275.225 79.986 L 275.225 79.986 Q 275.225 80.426 275.336 80.799 L 275.336 80.799 L 275.336 80.799 Q 275.447 81.172 275.731 81.436 L 275.731 81.436 L 275.731 81.436 Q 276.016 81.699 276.439 81.699 L 276.439 81.699 L 276.439 81.699 Q 277.022 81.699 277.341 81.3 L 277.341 81.3 L 277.341 81.3 Q 277.66 80.901 277.66 80.257 Z  M 280.922 79.086 L 280.922 79.086 L 280.922 79.086 Q 280.825 78.881 280.582 78.745 L 280.582 78.745 L 280.582 78.745 Q 280.339 78.61 280.075 78.61 L 280.075 78.61 L 280.075 78.61 Q 279.798 78.61 279.6 78.76 L 279.6 78.76 L 279.6 78.76 Q 279.402 78.91 279.402 79.196 L 279.402 79.196 L 279.402 79.196 Q 279.402 79.423 279.548 79.565 L 279.548 79.565 L 279.548 79.565 Q 279.694 79.708 279.912 79.767 L 279.912 79.767 L 279.912 79.767 Q 280.131 79.825 280.384 79.906 L 280.384 79.906 L 280.384 79.906 Q 280.637 79.986 280.856 80.078 L 280.856 80.078 L 280.856 80.078 Q 281.074 80.169 281.22 80.393 L 281.22 80.393 L 281.22 80.393 Q 281.366 80.616 281.366 80.945 L 281.366 80.945 L 281.366 80.945 Q 281.366 81.538 280.974 81.817 L 280.974 81.817 L 280.974 81.817 Q 280.582 82.095 280.02 82.095 L 280.02 82.095 L 280.02 82.095 Q 279.562 82.095 279.211 81.934 L 279.211 81.934 L 279.211 81.934 Q 278.861 81.773 278.861 81.538 L 278.861 81.538 L 278.861 81.538 Q 278.861 81.355 279.173 81.194 L 279.173 81.194 L 279.173 81.194 Q 279.284 81.414 279.565 81.553 L 279.565 81.553 L 279.565 81.553 Q 279.846 81.692 280.145 81.692 L 280.145 81.692 L 280.145 81.692 Q 280.45 81.692 280.675 81.535 L 280.675 81.535 L 280.675 81.535 Q 280.901 81.377 280.901 81.084 L 280.901 81.084 L 280.901 81.084 Q 280.901 80.828 280.7 80.678 L 280.7 80.678 L 280.7 80.678 Q 280.498 80.528 280.21 80.455 L 280.21 80.455 L 280.21 80.455 Q 279.922 80.382 279.635 80.283 L 279.635 80.283 L 279.635 80.283 Q 279.347 80.184 279.145 79.946 L 279.145 79.946 L 279.145 79.946 Q 278.944 79.708 278.944 79.32 L 278.944 79.32 L 278.944 79.32 Q 278.944 78.778 279.298 78.493 L 279.298 78.493 L 279.298 78.493 Q 279.652 78.207 280.2 78.207 L 280.2 78.207 L 280.2 78.207 Q 280.602 78.207 280.939 78.35 L 280.939 78.35 L 280.939 78.35 Q 281.276 78.493 281.276 78.749 L 281.276 78.749 L 281.276 78.749 Q 281.276 79.013 280.922 79.086 Z  M 282.906 80.726 L 282.906 80.726 L 282.906 79.584 L 282.906 79.584 Q 282.906 79.247 282.892 78.676 L 282.892 78.676 L 282.892 78.676 Q 282.08 78.676 281.817 78.698 L 281.817 78.698 L 281.817 78.698 Q 281.803 78.661 281.803 78.515 L 281.803 78.515 L 281.803 78.515 Q 281.803 78.383 281.862 78.332 L 281.862 78.332 L 281.862 78.332 Q 281.921 78.281 282.053 78.281 L 282.053 78.281 L 282.053 78.281 Q 282.108 78.281 282.327 78.277 L 282.327 78.277 L 282.327 78.277 Q 282.545 78.273 282.684 78.273 L 282.684 78.273 L 283.357 78.273 L 283.357 78.273 Q 284.28 78.273 284.481 78.259 L 284.481 78.259 L 284.481 78.259 Q 284.495 78.332 284.495 78.434 L 284.495 78.434 L 284.495 78.434 Q 284.495 78.676 284.245 78.676 L 284.245 78.676 L 283.44 78.676 L 283.44 78.676 Q 283.44 78.756 283.43 78.95 L 283.43 78.95 L 283.43 78.95 Q 283.42 79.144 283.413 79.349 L 283.413 79.349 L 283.413 79.349 Q 283.406 79.554 283.406 79.737 L 283.406 79.737 L 283.406 80.887 L 283.406 80.887 Q 283.406 81.655 283.517 82.014 L 283.517 82.014 L 283.517 82.014 Q 283.413 82.058 283.211 82.058 L 283.211 82.058 L 283.211 82.058 Q 283.024 82.058 282.958 81.985 L 282.958 81.985 L 282.958 81.985 Q 282.892 81.912 282.892 81.736 L 282.892 81.736 L 282.892 81.736 Q 282.892 81.648 282.899 81.289 L 282.899 81.289 L 282.899 81.289 Q 282.906 80.931 282.906 80.726 Z " fill-rule="evenodd" fill="url(#_lgradient_2)" vector-effect="non-scaling-stroke" stroke-width="0.5" stroke="rgb(208,204,204)" stroke-linejoin="miter" stroke-linecap="square" stroke-miterlimit="3"/></g></g></svg>