<?xml version="1.0" standalone="no"?><!-- Generator: Gravit.io --><svg xmlns="http://www.w3.org/2000/svg" xmlns:xlink="http://www.w3.org/1999/xlink" style="isolation:isolate" viewBox="268.928 155 14.135 12" width="14.135" height="12"><path d=" M 279.999 161.178 L 278.988 160.828 L 281.419 158.863 L 283.063 161.172 L 281.987 161.277 L 281.985 161.42 C 281.817 164.581 279.203 167 276 167 C 273.73 167 271.753 165.737 270.734 163.875 L 272.805 163.406 C 273.535 164.374 274.695 165 276 165 C 277.936 165 279.534 163.609 279.902 161.78 L 279.999 161.178 Z  M 272.024 160.908 L 273.007 161.152 L 270.606 162.869 L 268.928 160.726 L 270.008 160.687 C 270.171 157.521 272.793 155 276 155 C 278.274 155 280.254 156.267 281.271 158.134 L 279.202 158.603 C 278.472 157.63 277.309 157 276 157 C 274.06 157 272.44 158.384 272.076 160.218 L 272.024 160.908 Z " fill-rule="evenodd" fill="rgb(235,235,235)"/></svg>